<svg xmlns="http://www.w3.org/2000/svg" viewBox="0 0 1037.50 477.65">
  <style>
    .key-bg { fill: #f5f5f5; stroke: #d4d4d4; stroke-width: 1; }
    .key-index { fill: #171717; font-family: ui-monospace, SFMono-Regular, "SF Mono", Menlo, Consolas, "Liberation Mono", monospace; font-weight: 700; text-anchor: middle; dominant-baseline: central; }
    .key-part { font-family: system-ui, -apple-system, BlinkMacSystemFont, "Segoe UI", Roboto, sans-serif; text-anchor: middle; dominant-baseline: central; }
    @media (prefers-color-scheme: dark) {
      .key-bg { fill: #2a2a2a; stroke: #404040; }
      .key-index { fill: #e5e5e5; }
    }
    .key-bg.part-0 { stroke: #f59e0b; }
    .key-part.part-0 { fill: #f59e0b; }
    .key-bg.part-1 { stroke: #14b8a6; }
    .key-part.part-1 { fill: #14b8a6; }
  </style>
  <g>
    <path class="key-bg part-0" d="M 26.00,123.50 L 84.00,123.50 Q 88.00,123.50 88.00,127.50 L 88.00,185.50 Q 88.00,189.50 84.00,189.50 L 26.00,189.50 Q 22.00,189.50 22.00,185.50 L 22.00,127.50 Q 22.00,123.50 26.00,123.50 Z" />
    <path class="key-bg part-0" d="M 96.00,79.40 L 154.00,79.40 Q 158.00,79.40 158.00,83.40 L 158.00,141.40 Q 158.00,145.40 154.00,145.40 L 96.00,145.40 Q 92.00,145.40 92.00,141.40 L 92.00,83.40 Q 92.00,79.40 96.00,79.40 Z" />
    <path class="key-bg part-0" d="M 166.00,57.00 L 224.00,57.00 Q 228.00,57.00 228.00,61.00 L 228.00,119.00 Q 228.00,123.00 224.00,123.00 L 166.00,123.00 Q 162.00,123.00 162.00,119.00 L 162.00,61.00 Q 162.00,57.00 166.00,57.00 Z" />
    <path class="key-bg part-0" d="M 236.00,76.60 L 294.00,76.60 Q 298.00,76.60 298.00,80.60 L 298.00,138.60 Q 298.00,142.60 294.00,142.60 L 236.00,142.60 Q 232.00,142.60 232.00,138.60 L 232.00,80.60 Q 232.00,76.60 236.00,76.60 Z" />
    <path class="key-bg part-0" d="M 306.00,86.40 L 364.00,86.40 Q 368.00,86.40 368.00,90.40 L 368.00,148.40 Q 368.00,152.40 364.00,152.40 L 306.00,152.40 Q 302.00,152.40 302.00,148.40 L 302.00,90.40 Q 302.00,86.40 306.00,86.40 Z" />
    <path class="key-bg part-1" d="M 953.50,123.50 L 1011.50,123.50 Q 1015.50,123.50 1015.50,127.50 L 1015.50,185.50 Q 1015.50,189.50 1011.50,189.50 L 953.50,189.50 Q 949.50,189.50 949.50,185.50 L 949.50,127.50 Q 949.50,123.50 953.50,123.50 Z" />
    <path class="key-bg part-1" d="M 883.50,79.40 L 941.50,79.40 Q 945.50,79.40 945.50,83.40 L 945.50,141.40 Q 945.50,145.40 941.50,145.40 L 883.50,145.40 Q 879.50,145.40 879.50,141.40 L 879.50,83.40 Q 879.50,79.40 883.50,79.40 Z" />
    <path class="key-bg part-1" d="M 813.50,57.00 L 871.50,57.00 Q 875.50,57.00 875.50,61.00 L 875.50,119.00 Q 875.50,123.00 871.50,123.00 L 813.50,123.00 Q 809.50,123.00 809.50,119.00 L 809.50,61.00 Q 809.50,57.00 813.50,57.00 Z" />
    <path class="key-bg part-1" d="M 743.50,76.60 L 801.50,76.60 Q 805.50,76.60 805.50,80.60 L 805.50,138.60 Q 805.50,142.60 801.50,142.60 L 743.50,142.60 Q 739.50,142.60 739.50,138.60 L 739.50,80.60 Q 739.50,76.60 743.50,76.60 Z" />
    <path class="key-bg part-1" d="M 673.50,86.40 L 731.50,86.40 Q 735.50,86.40 735.50,90.40 L 735.50,148.40 Q 735.50,152.40 731.50,152.40 L 673.50,152.40 Q 669.50,152.40 669.50,148.40 L 669.50,90.40 Q 669.50,86.40 673.50,86.40 Z" />
    <path class="key-bg part-0" d="M 26.00,193.50 L 84.00,193.50 Q 88.00,193.50 88.00,197.50 L 88.00,255.50 Q 88.00,259.50 84.00,259.50 L 26.00,259.50 Q 22.00,259.50 22.00,255.50 L 22.00,197.50 Q 22.00,193.50 26.00,193.50 Z" />
    <path class="key-bg part-0" d="M 96.00,149.40 L 154.00,149.40 Q 158.00,149.40 158.00,153.40 L 158.00,211.40 Q 158.00,215.40 154.00,215.40 L 96.00,215.40 Q 92.00,215.40 92.00,211.40 L 92.00,153.40 Q 92.00,149.40 96.00,149.40 Z" />
    <path class="key-bg part-0" d="M 166.00,127.00 L 224.00,127.00 Q 228.00,127.00 228.00,131.00 L 228.00,189.00 Q 228.00,193.00 224.00,193.00 L 166.00,193.00 Q 162.00,193.00 162.00,189.00 L 162.00,131.00 Q 162.00,127.00 166.00,127.00 Z" />
    <path class="key-bg part-0" d="M 236.00,147.30 L 294.00,147.30 Q 298.00,147.30 298.00,151.30 L 298.00,209.30 Q 298.00,213.30 294.00,213.30 L 236.00,213.30 Q 232.00,213.30 232.00,209.30 L 232.00,151.30 Q 232.00,147.30 236.00,147.30 Z" />
    <path class="key-bg part-0" d="M 306.00,156.40 L 364.00,156.40 Q 368.00,156.40 368.00,160.40 L 368.00,218.40 Q 368.00,222.40 364.00,222.40 L 306.00,222.40 Q 302.00,222.40 302.00,218.40 L 302.00,160.40 Q 302.00,156.40 306.00,156.40 Z" />
    <path class="key-bg part-1" d="M 953.50,193.50 L 1011.50,193.50 Q 1015.50,193.50 1015.50,197.50 L 1015.50,255.50 Q 1015.50,259.50 1011.50,259.50 L 953.50,259.50 Q 949.50,259.50 949.50,255.50 L 949.50,197.50 Q 949.50,193.50 953.50,193.50 Z" />
    <path class="key-bg part-1" d="M 883.50,149.40 L 941.50,149.40 Q 945.50,149.40 945.50,153.40 L 945.50,211.40 Q 945.50,215.40 941.50,215.40 L 883.50,215.40 Q 879.50,215.40 879.50,211.40 L 879.50,153.40 Q 879.50,149.40 883.50,149.40 Z" />
    <path class="key-bg part-1" d="M 813.50,127.00 L 871.50,127.00 Q 875.50,127.00 875.50,131.00 L 875.50,189.00 Q 875.50,193.00 871.50,193.00 L 813.50,193.00 Q 809.50,193.00 809.50,189.00 L 809.50,131.00 Q 809.50,127.00 813.50,127.00 Z" />
    <path class="key-bg part-1" d="M 743.50,147.30 L 801.50,147.30 Q 805.50,147.30 805.50,151.30 L 805.50,209.30 Q 805.50,213.30 801.50,213.30 L 743.50,213.30 Q 739.50,213.30 739.50,209.30 L 739.50,151.30 Q 739.50,147.30 743.50,147.30 Z" />
    <path class="key-bg part-1" d="M 673.50,156.40 L 731.50,156.40 Q 735.50,156.40 735.50,160.40 L 735.50,218.40 Q 735.50,222.40 731.50,222.40 L 673.50,222.40 Q 669.50,222.40 669.50,218.40 L 669.50,160.40 Q 669.50,156.40 673.50,156.40 Z" />
    <path class="key-bg part-0" d="M 26.00,263.50 L 84.00,263.50 Q 88.00,263.50 88.00,267.50 L 88.00,325.50 Q 88.00,329.50 84.00,329.50 L 26.00,329.50 Q 22.00,329.50 22.00,325.50 L 22.00,267.50 Q 22.00,263.50 26.00,263.50 Z" />
    <path class="key-bg part-0" d="M 96.00,218.70 L 154.00,218.70 Q 158.00,218.70 158.00,222.70 L 158.00,280.70 Q 158.00,284.70 154.00,284.70 L 96.00,284.70 Q 92.00,284.70 92.00,280.70 L 92.00,222.70 Q 92.00,218.70 96.00,218.70 Z" />
    <path class="key-bg part-0" d="M 166.00,197.00 L 224.00,197.00 Q 228.00,197.00 228.00,201.00 L 228.00,259.00 Q 228.00,263.00 224.00,263.00 L 166.00,263.00 Q 162.00,263.00 162.00,259.00 L 162.00,201.00 Q 162.00,197.00 166.00,197.00 Z" />
    <path class="key-bg part-0" d="M 236.00,217.30 L 294.00,217.30 Q 298.00,217.30 298.00,221.30 L 298.00,279.30 Q 298.00,283.30 294.00,283.30 L 236.00,283.30 Q 232.00,283.30 232.00,279.30 L 232.00,221.30 Q 232.00,217.30 236.00,217.30 Z" />
    <path class="key-bg part-0" d="M 306.00,226.40 L 364.00,226.40 Q 368.00,226.40 368.00,230.40 L 368.00,288.40 Q 368.00,292.40 364.00,292.40 L 306.00,292.40 Q 302.00,292.40 302.00,288.40 L 302.00,230.40 Q 302.00,226.40 306.00,226.40 Z" />
    <path class="key-bg part-1" d="M 953.50,263.50 L 1011.50,263.50 Q 1015.50,263.50 1015.50,267.50 L 1015.50,325.50 Q 1015.50,329.50 1011.50,329.50 L 953.50,329.50 Q 949.50,329.50 949.50,325.50 L 949.50,267.50 Q 949.50,263.50 953.50,263.50 Z" />
    <path class="key-bg part-1" d="M 883.50,218.70 L 941.50,218.70 Q 945.50,218.70 945.50,222.70 L 945.50,280.70 Q 945.50,284.70 941.50,284.70 L 883.50,284.70 Q 879.50,284.70 879.50,280.70 L 879.50,222.70 Q 879.50,218.70 883.50,218.70 Z" />
    <path class="key-bg part-1" d="M 813.50,197.00 L 871.50,197.00 Q 875.50,197.00 875.50,201.00 L 875.50,259.00 Q 875.50,263.00 871.50,263.00 L 813.50,263.00 Q 809.50,263.00 809.50,259.00 L 809.50,201.00 Q 809.50,197.00 813.50,197.00 Z" />
    <path class="key-bg part-1" d="M 743.50,217.30 L 801.50,217.30 Q 805.50,217.30 805.50,221.30 L 805.50,279.30 Q 805.50,283.30 801.50,283.30 L 743.50,283.30 Q 739.50,283.30 739.50,279.30 L 739.50,221.30 Q 739.50,217.30 743.50,217.30 Z" />
    <path class="key-bg part-1" d="M 673.50,226.40 L 731.50,226.40 Q 735.50,226.40 735.50,230.40 L 735.50,288.40 Q 735.50,292.40 731.50,292.40 L 673.50,292.40 Q 669.50,292.40 669.50,288.40 L 669.50,230.40 Q 669.50,226.40 673.50,226.40 Z" />
    <path class="key-bg part-0" d="M 26.00,22.00 L 49.00,22.00 Q 53.00,22.00 53.00,26.00 L 53.00,49.00 Q 53.00,53.00 49.00,53.00 L 26.00,53.00 Q 22.00,53.00 22.00,49.00 L 22.00,26.00 Q 22.00,22.00 26.00,22.00 Z" />
    <path class="key-bg part-0" d="M 276.78,291.25 L 332.80,306.26 Q 336.67,307.30 335.63,311.16 L 320.62,367.19 Q 319.59,371.05 315.72,370.02 L 259.70,355.00 Q 255.83,353.97 256.87,350.10 L 271.88,294.08 Q 272.92,290.22 276.78,291.25 Z" />
    <path class="key-bg part-0" d="M 360.20,317.61 L 410.43,346.61 Q 413.89,348.61 411.89,352.07 L 382.89,402.30 Q 380.89,405.77 377.43,403.77 L 327.20,374.77 Q 323.73,372.77 325.73,369.30 L 354.73,319.07 Q 356.73,315.61 360.20,317.61 Z" />
    <path class="key-bg part-0" d="M 432.72,364.31 L 473.74,405.32 Q 476.56,408.15 473.74,410.98 L 432.72,451.99 Q 429.89,454.82 427.07,451.99 L 386.05,410.98 Q 383.23,408.15 386.05,405.32 L 427.07,364.31 Q 429.89,361.48 432.72,364.31 Z" />
    <path class="key-bg part-1" d="M 988.50,22.00 L 1011.50,22.00 Q 1015.50,22.00 1015.50,26.00 L 1015.50,49.00 Q 1015.50,53.00 1011.50,53.00 L 988.50,53.00 Q 984.50,53.00 984.50,49.00 L 984.50,26.00 Q 984.50,22.00 988.50,22.00 Z" />
    <path class="key-bg part-1" d="M 704.70,306.26 L 760.72,291.25 Q 764.58,290.22 765.62,294.08 L 780.63,350.10 Q 781.67,353.97 777.80,355.00 L 721.78,370.02 Q 717.91,371.05 716.88,367.19 L 701.87,311.16 Q 700.83,307.30 704.70,306.26 Z" />
    <path class="key-bg part-1" d="M 627.07,346.61 L 677.30,317.61 Q 680.77,315.61 682.77,319.07 L 711.77,369.30 Q 713.77,372.77 710.30,374.77 L 660.07,403.77 Q 656.61,405.77 654.61,402.30 L 625.61,352.07 Q 623.61,348.61 627.07,346.61 Z" />
    <path class="key-bg part-1" d="M 563.76,405.32 L 604.78,364.31 Q 607.61,361.48 610.43,364.31 L 651.45,405.32 Q 654.27,408.15 651.45,410.98 L 610.43,451.99 Q 607.61,454.82 604.78,451.99 L 563.76,410.98 Q 560.94,408.15 563.76,405.32 Z" />
    <path class="key-bg part-0" d="M 61.00,22.00 L 84.00,22.00 Q 88.00,22.00 88.00,26.00 L 88.00,49.00 Q 88.00,53.00 84.00,53.00 L 61.00,53.00 Q 57.00,53.00 57.00,49.00 L 57.00,26.00 Q 57.00,22.00 61.00,22.00 Z" />
    <path class="key-bg part-0" d="M 393.50,144.50 L 416.50,144.50 Q 420.50,144.50 420.50,148.50 L 420.50,171.50 Q 420.50,175.50 416.50,175.50 L 393.50,175.50 Q 389.50,175.50 389.50,171.50 L 389.50,148.50 Q 389.50,144.50 393.50,144.50 Z" />
    <path class="key-bg part-0" d="M 463.50,144.50 L 486.50,144.50 Q 490.50,144.50 490.50,148.50 L 490.50,171.50 Q 490.50,175.50 486.50,175.50 L 463.50,175.50 Q 459.50,175.50 459.50,171.50 L 459.50,148.50 Q 459.50,144.50 463.50,144.50 Z" />
    <path class="key-bg part-0" d="M 26.00,74.50 L 49.00,74.50 Q 53.00,74.50 53.00,78.50 L 53.00,101.50 Q 53.00,105.50 49.00,105.50 L 26.00,105.50 Q 22.00,105.50 22.00,101.50 L 22.00,78.50 Q 22.00,74.50 26.00,74.50 Z" />
    <path class="key-bg part-1" d="M 953.50,22.00 L 976.50,22.00 Q 980.50,22.00 980.50,26.00 L 980.50,49.00 Q 980.50,53.00 976.50,53.00 L 953.50,53.00 Q 949.50,53.00 949.50,49.00 L 949.50,26.00 Q 949.50,22.00 953.50,22.00 Z" />
    <path class="key-bg part-1" d="M 621.00,144.50 L 644.00,144.50 Q 648.00,144.50 648.00,148.50 L 648.00,171.50 Q 648.00,175.50 644.00,175.50 L 621.00,175.50 Q 617.00,175.50 617.00,171.50 L 617.00,148.50 Q 617.00,144.50 621.00,144.50 Z" />
    <path class="key-bg part-1" d="M 551.00,144.50 L 574.00,144.50 Q 578.00,144.50 578.00,148.50 L 578.00,171.50 Q 578.00,175.50 574.00,175.50 L 551.00,175.50 Q 547.00,175.50 547.00,171.50 L 547.00,148.50 Q 547.00,144.50 551.00,144.50 Z" />
    <path class="key-bg part-1" d="M 953.50,74.50 L 976.50,74.50 Q 980.50,74.50 980.50,78.50 L 980.50,101.50 Q 980.50,105.50 976.50,105.50 L 953.50,105.50 Q 949.50,105.50 949.50,101.50 L 949.50,78.50 Q 949.50,74.50 953.50,74.50 Z" />
    <path class="key-bg part-0" d="M 393.50,214.50 L 416.50,214.50 Q 420.50,214.50 420.50,218.50 L 420.50,241.50 Q 420.50,245.50 416.50,245.50 L 393.50,245.50 Q 389.50,245.50 389.50,241.50 L 389.50,218.50 Q 389.50,214.50 393.50,214.50 Z" />
    <path class="key-bg part-0" d="M 428.50,179.50 L 451.50,179.50 Q 455.50,179.50 455.50,183.50 L 455.50,206.50 Q 455.50,210.50 451.50,210.50 L 428.50,210.50 Q 424.50,210.50 424.50,206.50 L 424.50,183.50 Q 424.50,179.50 428.50,179.50 Z" />
    <path class="key-bg part-0" d="M 463.50,214.50 L 486.50,214.50 Q 490.50,214.50 490.50,218.50 L 490.50,241.50 Q 490.50,245.50 486.50,245.50 L 463.50,245.50 Q 459.50,245.50 459.50,241.50 L 459.50,218.50 Q 459.50,214.50 463.50,214.50 Z" />
    <path class="key-bg part-0" d="M 61.00,74.50 L 84.00,74.50 Q 88.00,74.50 88.00,78.50 L 88.00,101.50 Q 88.00,105.50 84.00,105.50 L 61.00,105.50 Q 57.00,105.50 57.00,101.50 L 57.00,78.50 Q 57.00,74.50 61.00,74.50 Z" />
    <path class="key-bg part-1" d="M 621.00,214.50 L 644.00,214.50 Q 648.00,214.50 648.00,218.50 L 648.00,241.50 Q 648.00,245.50 644.00,245.50 L 621.00,245.50 Q 617.00,245.50 617.00,241.50 L 617.00,218.50 Q 617.00,214.50 621.00,214.50 Z" />
    <path class="key-bg part-1" d="M 586.00,179.50 L 609.00,179.50 Q 613.00,179.50 613.00,183.50 L 613.00,206.50 Q 613.00,210.50 609.00,210.50 L 586.00,210.50 Q 582.00,210.50 582.00,206.50 L 582.00,183.50 Q 582.00,179.50 586.00,179.50 Z" />
    <path class="key-bg part-1" d="M 551.00,214.50 L 574.00,214.50 Q 578.00,214.50 578.00,218.50 L 578.00,241.50 Q 578.00,245.50 574.00,245.50 L 551.00,245.50 Q 547.00,245.50 547.00,241.50 L 547.00,218.50 Q 547.00,214.50 551.00,214.50 Z" />
    <path class="key-bg part-1" d="M 988.50,74.50 L 1011.50,74.50 Q 1015.50,74.50 1015.50,78.50 L 1015.50,101.50 Q 1015.50,105.50 1011.50,105.50 L 988.50,105.50 Q 984.50,105.50 984.50,101.50 L 984.50,78.50 Q 984.50,74.50 988.50,74.50 Z" />
  </g>
  <g>
    <text class="key-index" x="55.00" y="144.86" font-size="26">0</text>
    <text class="key-part part-0" x="55.00" y="172.14" font-size="18">left</text>
    <text class="key-index" x="125.00" y="100.76" font-size="26">1</text>
    <text class="key-part part-0" x="125.00" y="128.04" font-size="18">left</text>
    <text class="key-index" x="195.00" y="78.36" font-size="26">2</text>
    <text class="key-part part-0" x="195.00" y="105.64" font-size="18">left</text>
    <text class="key-index" x="265.00" y="97.96" font-size="26">3</text>
    <text class="key-part part-0" x="265.00" y="125.24" font-size="18">left</text>
    <text class="key-index" x="335.00" y="107.76" font-size="26">4</text>
    <text class="key-part part-0" x="335.00" y="135.04" font-size="18">left</text>
    <text class="key-index" x="982.50" y="144.86" font-size="26">5</text>
    <text class="key-part part-1" x="982.50" y="172.14" font-size="18">right</text>
    <text class="key-index" x="912.50" y="100.76" font-size="26">6</text>
    <text class="key-part part-1" x="912.50" y="128.04" font-size="18">right</text>
    <text class="key-index" x="842.50" y="78.36" font-size="26">7</text>
    <text class="key-part part-1" x="842.50" y="105.64" font-size="18">right</text>
    <text class="key-index" x="772.50" y="97.96" font-size="26">8</text>
    <text class="key-part part-1" x="772.50" y="125.24" font-size="18">right</text>
    <text class="key-index" x="702.50" y="107.76" font-size="26">9</text>
    <text class="key-part part-1" x="702.50" y="135.04" font-size="18">right</text>
    <text class="key-index" x="55.00" y="214.86" font-size="26">10</text>
    <text class="key-part part-0" x="55.00" y="242.14" font-size="18">left</text>
    <text class="key-index" x="125.00" y="170.76" font-size="26">11</text>
    <text class="key-part part-0" x="125.00" y="198.04" font-size="18">left</text>
    <text class="key-index" x="195.00" y="148.36" font-size="26">12</text>
    <text class="key-part part-0" x="195.00" y="175.64" font-size="18">left</text>
    <text class="key-index" x="265.00" y="168.66" font-size="26">13</text>
    <text class="key-part part-0" x="265.00" y="195.94" font-size="18">left</text>
    <text class="key-index" x="335.00" y="177.76" font-size="26">14</text>
    <text class="key-part part-0" x="335.00" y="205.04" font-size="18">left</text>
    <text class="key-index" x="982.50" y="214.86" font-size="26">15</text>
    <text class="key-part part-1" x="982.50" y="242.14" font-size="18">right</text>
    <text class="key-index" x="912.50" y="170.76" font-size="26">16</text>
    <text class="key-part part-1" x="912.50" y="198.04" font-size="18">right</text>
    <text class="key-index" x="842.50" y="148.36" font-size="26">17</text>
    <text class="key-part part-1" x="842.50" y="175.64" font-size="18">right</text>
    <text class="key-index" x="772.50" y="168.66" font-size="26">18</text>
    <text class="key-part part-1" x="772.50" y="195.94" font-size="18">right</text>
    <text class="key-index" x="702.50" y="177.76" font-size="26">19</text>
    <text class="key-part part-1" x="702.50" y="205.04" font-size="18">right</text>
    <text class="key-index" x="55.00" y="284.86" font-size="26">20</text>
    <text class="key-part part-0" x="55.00" y="312.14" font-size="18">left</text>
    <text class="key-index" x="125.00" y="240.06" font-size="26">21</text>
    <text class="key-part part-0" x="125.00" y="267.34" font-size="18">left</text>
    <text class="key-index" x="195.00" y="218.36" font-size="26">22</text>
    <text class="key-part part-0" x="195.00" y="245.64" font-size="18">left</text>
    <text class="key-index" x="265.00" y="238.66" font-size="26">23</text>
    <text class="key-part part-0" x="265.00" y="265.94" font-size="18">left</text>
    <text class="key-index" x="335.00" y="247.76" font-size="26">24</text>
    <text class="key-part part-0" x="335.00" y="275.04" font-size="18">left</text>
    <text class="key-index" x="982.50" y="284.86" font-size="26">25</text>
    <text class="key-part part-1" x="982.50" y="312.14" font-size="18">right</text>
    <text class="key-index" x="912.50" y="240.06" font-size="26">26</text>
    <text class="key-part part-1" x="912.50" y="267.34" font-size="18">right</text>
    <text class="key-index" x="842.50" y="218.36" font-size="26">27</text>
    <text class="key-part part-1" x="842.50" y="245.64" font-size="18">right</text>
    <text class="key-index" x="772.50" y="238.66" font-size="26">28</text>
    <text class="key-part part-1" x="772.50" y="265.94" font-size="18">right</text>
    <text class="key-index" x="702.50" y="247.76" font-size="26">29</text>
    <text class="key-part part-1" x="702.50" y="275.04" font-size="18">right</text>
    <text class="key-index" x="37.50" y="31.76" font-size="12">30</text>
    <text class="key-part part-0" x="37.50" y="44.74" font-size="9">left</text>
    <text class="key-index" x="296.25" y="318.99" font-size="26" transform="rotate(15 296.25 330.63)">31</text>
    <text class="key-part part-0" x="296.25" y="346.27" font-size="18" transform="rotate(15 296.25 330.63)">left</text>
    <text class="key-index" x="368.81" y="349.05" font-size="26" transform="rotate(30 368.81 360.69)">32</text>
    <text class="key-part part-0" x="368.81" y="376.33" font-size="18" transform="rotate(30 368.81 360.69)">left</text>
    <text class="key-index" x="429.89" y="396.51" font-size="26" transform="rotate(45 429.89 408.15)">33</text>
    <text class="key-part part-0" x="429.89" y="423.79" font-size="18" transform="rotate(45 429.89 408.15)">left</text>
    <text class="key-index" x="1000.00" y="31.76" font-size="12">34</text>
    <text class="key-part part-1" x="1000.00" y="44.74" font-size="9">right</text>
    <text class="key-index" x="741.25" y="318.99" font-size="26" transform="rotate(-15 741.25 330.63)">35</text>
    <text class="key-part part-1" x="741.25" y="346.27" font-size="18" transform="rotate(-15 741.25 330.63)">right</text>
    <text class="key-index" x="668.69" y="349.05" font-size="26" transform="rotate(-30 668.69 360.69)">36</text>
    <text class="key-part part-1" x="668.69" y="376.33" font-size="18" transform="rotate(-30 668.69 360.69)">right</text>
    <text class="key-index" x="607.61" y="396.51" font-size="26" transform="rotate(-45 607.61 408.15)">37</text>
    <text class="key-part part-1" x="607.61" y="423.79" font-size="18" transform="rotate(-45 607.61 408.15)">right</text>
    <text class="key-index" x="72.50" y="31.76" font-size="12">38</text>
    <text class="key-part part-0" x="72.50" y="44.74" font-size="9">left</text>
    <text class="key-index" x="405.00" y="154.26" font-size="12">39</text>
    <text class="key-part part-0" x="405.00" y="167.24" font-size="9">left</text>
    <text class="key-index" x="475.00" y="154.26" font-size="12">40</text>
    <text class="key-part part-0" x="475.00" y="167.24" font-size="9">left</text>
    <text class="key-index" x="37.50" y="84.26" font-size="12">41</text>
    <text class="key-part part-0" x="37.50" y="97.24" font-size="9">left</text>
    <text class="key-index" x="965.00" y="31.76" font-size="12">42</text>
    <text class="key-part part-1" x="965.00" y="44.74" font-size="9">right</text>
    <text class="key-index" x="632.50" y="154.26" font-size="12">43</text>
    <text class="key-part part-1" x="632.50" y="167.24" font-size="9">right</text>
    <text class="key-index" x="562.50" y="154.26" font-size="12">44</text>
    <text class="key-part part-1" x="562.50" y="167.24" font-size="9">right</text>
    <text class="key-index" x="965.00" y="84.26" font-size="12">45</text>
    <text class="key-part part-1" x="965.00" y="97.24" font-size="9">right</text>
    <text class="key-index" x="405.00" y="224.26" font-size="12">46</text>
    <text class="key-part part-0" x="405.00" y="237.24" font-size="9">left</text>
    <text class="key-index" x="440.00" y="189.26" font-size="12">47</text>
    <text class="key-part part-0" x="440.00" y="202.24" font-size="9">left</text>
    <text class="key-index" x="475.00" y="224.26" font-size="12">48</text>
    <text class="key-part part-0" x="475.00" y="237.24" font-size="9">left</text>
    <text class="key-index" x="72.50" y="84.26" font-size="12">49</text>
    <text class="key-part part-0" x="72.50" y="97.24" font-size="9">left</text>
    <text class="key-index" x="632.50" y="224.26" font-size="12">50</text>
    <text class="key-part part-1" x="632.50" y="237.24" font-size="9">right</text>
    <text class="key-index" x="597.50" y="189.26" font-size="12">51</text>
    <text class="key-part part-1" x="597.50" y="202.24" font-size="9">right</text>
    <text class="key-index" x="562.50" y="224.26" font-size="12">52</text>
    <text class="key-part part-1" x="562.50" y="237.24" font-size="9">right</text>
    <text class="key-index" x="1000.00" y="84.26" font-size="12">53</text>
    <text class="key-part part-1" x="1000.00" y="97.24" font-size="9">right</text>
  </g>
</svg>
